<svg id="svg" version="1.1" xmlns="http://www.w3.org/2000/svg" xmlns:xlink="http://www.w3.org/1999/xlink" width="400" height="462.87367405978785" viewBox="0, 0, 400,462.87367405978785"><g id="svgg"><path id="path0" d="M192.478 106.461 C 192.478 106.673,192.131 106.847,191.707 106.847 C 191.021 106.847,190.935 107.104,190.935 109.161 C 190.935 110.447,191.107 111.475,191.321 111.475 C 191.533 111.475,191.707 111.823,191.707 112.247 C 191.707 112.671,191.880 113.018,192.093 113.018 C 192.307 113.018,192.478 114.047,192.478 115.333 L 192.478 117.647 190.522 117.647 C 188.631 117.647,187.464 117.069,187.464 116.132 C 187.464 115.904,187.030 115.718,186.500 115.718 C 185.969 115.718,185.535 115.545,185.535 115.333 C 185.535 115.121,185.101 114.947,184.571 114.947 C 184.041 114.947,183.607 114.773,183.607 114.561 C 183.607 114.349,182.825 114.176,181.871 114.176 C 180.585 114.176,180.135 114.026,180.135 113.597 C 180.135 113.138,179.578 113.018,177.435 113.018 C 175.292 113.018,174.735 113.138,174.735 113.597 C 174.735 114.060,174.153 114.176,171.814 114.176 C 168.515 114.176,167.792 114.587,167.792 116.462 C 167.792 117.390,167.959 117.647,168.563 117.647 C 169.077 117.647,169.335 117.904,169.335 118.419 C 169.335 118.847,169.592 119.190,169.913 119.190 C 170.231 119.190,170.492 119.450,170.492 119.769 C 170.492 120.087,170.665 120.347,170.878 120.347 C 171.090 120.347,171.263 120.694,171.263 121.119 C 171.263 121.543,171.437 121.890,171.649 121.890 C 171.861 121.890,172.035 122.150,172.035 122.469 C 172.035 122.829,172.399 123.047,172.999 123.047 C 173.529 123.047,173.963 123.221,173.963 123.433 C 173.963 123.645,174.496 123.819,175.148 123.819 C 176.330 123.819,177.435 124.551,177.435 125.334 C 177.435 125.561,178.042 125.747,178.785 125.747 C 179.527 125.747,180.135 125.921,180.135 126.133 C 180.135 126.345,180.569 126.519,181.099 126.519 C 182.021 126.519,182.064 126.622,182.064 128.833 L 182.064 131.148 178.978 131.148 C 176.492 131.148,175.892 131.035,175.892 130.569 C 175.892 130.110,175.335 129.990,173.192 129.990 C 171.649 129.990,170.492 129.825,170.492 129.605 C 170.492 129.392,170.231 129.219,169.913 129.219 C 169.595 129.219,169.335 129.045,169.335 128.833 C 169.335 128.621,168.554 128.447,167.599 128.447 C 166.313 128.447,165.863 128.297,165.863 127.869 C 165.863 127.388,165.113 127.290,161.427 127.290 L 156.991 127.290 156.991 124.590 L 156.991 121.890 155.641 121.890 C 154.698 121.890,154.291 122.065,154.291 122.469 C 154.291 122.787,154.118 123.047,153.905 123.047 C 153.693 123.047,153.520 123.394,153.520 123.819 C 153.520 124.443,153.263 124.590,152.170 124.590 C 151.227 124.590,150.820 124.765,150.820 125.169 C 150.820 125.619,150.305 125.747,148.505 125.747 C 147.152 125.747,146.191 125.580,146.191 125.344 C 146.191 124.478,144.279 123.047,143.123 123.047 C 142.336 123.047,141.948 122.856,141.948 122.469 C 141.948 122.003,141.348 121.890,138.862 121.890 C 136.376 121.890,135.776 122.003,135.776 122.469 C 135.776 122.950,135.014 123.047,131.233 123.047 C 127.132 123.047,126.635 123.122,126.133 123.819 C 125.650 124.489,125.135 124.590,122.191 124.590 C 119.438 124.590,118.804 124.698,118.804 125.169 C 118.804 125.646,118.097 125.747,114.754 125.747 C 112.311 125.747,110.704 125.900,110.704 126.133 C 110.704 126.345,110.096 126.519,109.354 126.519 C 108.611 126.519,108.004 126.692,108.004 126.905 C 108.004 127.119,106.975 127.290,105.689 127.290 C 103.478 127.290,103.375 127.333,103.375 128.255 C 103.375 129.140,103.234 129.219,101.639 129.219 C 100.061 129.219,99.904 129.303,99.904 130.151 C 99.904 130.664,99.692 131.154,99.432 131.240 C 98.732 131.474,100.864 133.462,101.815 133.462 C 102.259 133.462,102.604 133.715,102.604 134.041 C 102.604 134.539,103.911 134.619,112.054 134.619 L 121.504 134.619 121.504 136.741 C 121.504 138.746,121.452 138.862,120.540 138.862 C 119.940 138.862,119.576 139.081,119.576 139.441 C 119.576 139.801,119.211 140.019,118.611 140.019 C 118.081 140.019,117.647 140.193,117.647 140.405 C 117.647 140.623,116.545 140.791,115.112 140.791 C 112.642 140.791,111.475 141.277,111.475 142.306 C 111.475 142.533,111.128 142.719,110.704 142.719 C 110.280 142.719,109.932 142.893,109.932 143.105 C 109.932 143.317,109.672 143.491,109.354 143.491 C 109.036 143.491,108.775 143.664,108.775 143.877 C 108.775 144.089,108.428 144.262,108.004 144.262 C 107.580 144.262,107.232 144.436,107.232 144.648 C 107.232 144.860,106.798 145.034,106.268 145.034 C 105.738 145.034,105.304 145.220,105.304 145.447 C 105.304 146.230,104.199 146.962,103.017 146.962 C 102.010 146.962,101.832 147.107,101.832 147.927 C 101.832 148.698,101.639 148.891,100.868 148.891 C 100.161 148.891,99.904 149.097,99.904 149.662 C 99.904 150.087,99.730 150.434,99.518 150.434 C 99.306 150.434,99.132 150.694,99.132 151.013 C 99.132 151.331,98.959 151.591,98.746 151.591 C 98.152 151.591,98.290 154.661,98.912 155.283 C 99.536 155.908,101.832 156.037,101.832 155.448 C 101.832 155.236,102.440 155.063,103.182 155.063 C 103.925 155.063,104.532 154.889,104.532 154.677 C 104.532 154.465,105.313 154.291,106.268 154.291 C 107.554 154.291,108.004 154.141,108.004 153.713 C 108.004 153.316,108.402 153.134,109.269 153.134 C 110.091 153.134,110.728 152.864,111.090 152.363 C 111.396 151.938,112.041 151.591,112.525 151.591 C 113.008 151.591,113.404 151.405,113.404 151.178 C 113.404 150.435,114.485 149.662,115.526 149.662 C 116.566 149.662,117.647 148.890,117.647 148.147 C 117.647 147.908,118.461 147.734,119.576 147.734 C 120.636 147.734,121.504 147.560,121.504 147.348 C 121.504 147.136,122.112 146.962,122.854 146.962 C 123.597 146.962,124.204 146.789,124.204 146.577 C 124.204 146.365,124.725 146.191,125.362 146.191 C 126.133 146.191,126.519 145.998,126.519 145.612 C 126.519 145.175,126.990 145.034,128.447 145.034 C 129.508 145.034,130.376 144.860,130.376 144.648 C 130.376 144.436,131.331 144.262,132.498 144.262 L 134.619 144.262 134.619 146.797 C 134.619 149.514,134.138 150.434,132.718 150.434 C 132.265 150.434,131.919 150.684,131.919 151.013 C 131.919 151.334,131.576 151.591,131.148 151.591 C 130.723 151.591,130.376 151.765,130.376 151.977 C 130.376 152.189,130.190 152.363,129.963 152.363 C 129.429 152.363,128.447 153.344,128.447 153.878 C 128.447 154.122,127.577 154.291,126.326 154.291 C 125.159 154.291,124.204 154.465,124.204 154.677 C 124.204 154.889,123.944 155.063,123.626 155.063 C 123.308 155.063,123.047 155.236,123.047 155.448 C 123.047 155.661,122.266 155.834,121.311 155.834 C 120.026 155.834,119.576 155.984,119.576 156.413 C 119.576 156.773,119.211 156.991,118.611 156.991 C 117.944 156.991,117.647 157.203,117.647 157.678 C 117.647 158.055,117.300 158.614,116.876 158.920 C 116.451 159.226,116.104 159.872,116.104 160.355 C 116.104 160.839,115.918 161.234,115.691 161.234 C 115.241 161.234,114.176 162.184,114.176 162.584 C 114.176 163.069,113.063 163.934,112.440 163.934 C 111.724 163.934,110.704 164.825,110.704 165.450 C 110.704 165.677,110.344 165.863,109.905 165.863 C 108.946 165.863,108.004 166.723,108.004 167.599 C 108.004 168.216,107.140 169.335,106.664 169.335 C 106.093 169.335,104.532 171.299,104.532 172.017 C 104.532 172.451,104.346 172.806,104.119 172.806 C 103.585 172.806,102.604 173.788,102.604 174.322 C 102.604 174.549,102.430 174.735,102.218 174.735 C 102.006 174.735,101.832 175.082,101.832 175.506 C 101.832 175.931,102.006 176.278,102.218 176.278 C 102.430 176.278,102.604 176.637,102.604 177.077 C 102.604 177.516,102.852 178.124,103.155 178.427 C 103.779 179.051,106.075 179.181,106.075 178.592 C 106.075 178.378,107.104 178.206,108.390 178.206 C 109.675 178.206,110.704 178.035,110.704 177.821 C 110.704 177.608,111.051 177.435,111.475 177.435 C 111.904 177.435,112.247 177.178,112.247 176.856 C 112.247 176.538,112.428 176.278,112.650 176.278 C 113.516 176.278,114.947 174.366,114.947 173.209 C 114.947 172.124,115.050 172.035,116.297 172.035 C 117.480 172.035,117.647 171.915,117.647 171.070 C 117.647 170.540,117.829 170.106,118.050 170.106 C 118.272 170.106,118.880 169.680,119.400 169.159 C 119.921 168.639,120.347 168.031,120.347 167.809 C 120.347 167.587,120.608 167.406,120.926 167.406 C 121.244 167.406,121.504 167.232,121.504 167.020 C 121.504 166.808,122.037 166.635,122.689 166.635 C 123.871 166.635,124.976 165.902,124.976 165.119 C 124.976 164.875,125.846 164.706,127.097 164.706 L 129.219 164.706 129.219 166.845 C 129.219 168.964,128.129 170.878,126.922 170.878 C 126.700 170.878,126.519 171.138,126.519 171.456 C 126.519 171.774,126.210 172.035,125.833 172.035 C 125.455 172.035,124.896 172.382,124.590 172.806 C 124.284 173.230,123.812 173.578,123.541 173.578 C 123.269 173.578,123.047 173.759,123.047 173.981 C 123.047 174.203,122.621 174.810,122.100 175.331 C 121.580 175.852,120.972 176.278,120.750 176.278 C 120.529 176.278,120.347 176.538,120.347 176.856 C 120.347 177.175,120.174 177.435,119.961 177.435 C 119.749 177.435,119.576 177.782,119.576 178.206 C 119.576 178.631,119.402 178.978,119.190 178.978 C 118.978 178.978,118.804 179.238,118.804 179.556 C 118.804 179.875,118.623 180.135,118.401 180.135 C 117.698 180.135,116.104 181.997,116.104 182.818 C 116.104 183.262,115.851 183.607,115.526 183.607 C 115.204 183.607,114.947 183.949,114.947 184.378 C 114.947 184.802,114.773 185.149,114.561 185.149 C 114.349 185.149,114.176 185.757,114.176 186.500 C 114.176 187.842,114.185 187.850,115.911 187.850 C 117.197 187.850,117.647 188.000,117.647 188.428 C 117.647 188.746,117.907 189.007,118.226 189.007 C 118.544 189.007,118.804 189.180,118.804 189.392 C 118.804 189.982,121.100 189.852,121.725 189.227 C 122.059 188.892,122.276 187.897,122.276 186.692 C 122.276 184.633,122.853 183.607,124.012 183.607 C 124.635 183.607,125.747 182.742,125.747 182.257 C 125.747 181.624,126.963 180.906,128.034 180.906 C 129.131 180.906,129.219 180.806,129.219 179.556 C 129.219 178.374,129.338 178.206,130.183 178.206 C 130.714 178.206,131.148 178.033,131.148 177.821 C 131.148 177.608,131.755 177.435,132.498 177.435 C 133.680 177.435,133.848 177.316,133.848 176.471 C 133.848 175.699,134.041 175.506,134.812 175.506 C 135.342 175.506,135.776 175.333,135.776 175.121 C 135.776 174.908,136.123 174.735,136.548 174.735 C 136.976 174.735,137.319 174.478,137.319 174.156 C 137.319 173.838,137.580 173.578,137.898 173.578 C 138.216 173.578,138.476 173.404,138.476 173.192 C 138.476 172.980,138.749 172.806,139.083 172.806 C 139.775 172.806,140.791 171.905,140.791 171.291 C 140.791 171.064,141.186 170.878,141.670 170.878 C 142.153 170.878,142.799 170.530,143.105 170.106 C 143.411 169.682,143.982 169.335,144.375 169.335 C 145.158 169.335,146.191 168.472,146.191 167.819 C 146.191 167.592,146.798 167.406,147.541 167.406 C 148.634 167.406,148.891 167.259,148.891 166.635 C 148.891 165.949,149.148 165.863,151.205 165.863 L 153.520 165.863 153.520 168.949 C 153.520 171.435,153.407 172.035,152.941 172.035 C 152.620 172.035,152.363 172.378,152.363 172.806 C 152.363 173.230,152.189 173.578,151.977 173.578 C 151.765 173.578,151.591 173.838,151.591 174.156 C 151.591 174.474,151.418 174.735,151.205 174.735 C 150.980 174.735,150.820 176.021,150.820 177.821 C 150.820 179.621,150.980 180.906,151.205 180.906 C 151.418 180.906,151.591 181.514,151.591 182.257 C 151.591 182.999,151.765 183.607,151.977 183.607 C 152.189 183.607,152.363 184.388,152.363 185.342 C 152.363 186.628,152.513 187.078,152.941 187.078 C 153.345 187.078,153.520 187.485,153.520 188.428 C 153.520 189.171,153.693 189.778,153.905 189.778 C 154.118 189.778,154.291 190.212,154.291 190.743 C 154.291 191.273,154.465 191.707,154.677 191.707 C 154.889 191.707,155.063 192.054,155.063 192.478 C 155.063 192.907,155.320 193.250,155.641 193.250 C 156.100 193.250,156.220 193.807,156.220 195.950 C 156.220 197.613,156.061 198.650,155.807 198.650 C 154.908 198.650,154.291 199.816,154.291 201.515 C 154.291 203.139,154.368 203.279,155.256 203.279 C 156.192 203.279,156.220 203.356,156.220 205.979 C 156.220 208.122,156.100 208.679,155.641 208.679 C 155.320 208.679,155.063 209.022,155.063 209.450 C 155.063 209.875,154.889 210.222,154.677 210.222 C 154.465 210.222,154.291 210.829,154.291 211.572 C 154.291 212.314,154.465 212.922,154.677 212.922 C 154.889 212.922,155.063 213.356,155.063 213.886 C 155.063 214.486,155.281 214.851,155.641 214.851 C 155.963 214.851,156.220 215.193,156.220 215.622 C 156.220 216.136,156.477 216.393,156.991 216.393 C 157.723 216.393,157.763 216.651,157.763 221.408 C 157.763 224.494,157.614 226.422,157.377 226.422 C 157.157 226.422,156.991 227.580,156.991 229.122 C 156.991 230.665,156.826 231.823,156.606 231.823 C 156.393 231.823,156.220 232.604,156.220 233.558 C 156.220 234.513,156.038 235.294,155.817 235.294 C 154.317 235.294,153.520 237.162,153.520 240.677 C 153.520 243.521,153.413 244.166,152.941 244.166 C 152.581 244.166,152.363 244.530,152.363 245.130 C 152.363 245.902,152.555 246.095,153.327 246.095 C 154.239 246.095,154.291 246.210,154.291 248.216 C 154.291 249.383,154.118 250.338,153.905 250.338 C 153.655 250.338,153.520 255.223,153.520 264.224 C 153.520 273.224,153.655 278.110,153.905 278.110 C 154.118 278.110,154.291 278.457,154.291 278.881 C 154.291 279.447,154.548 279.653,155.256 279.653 C 156.027 279.653,156.220 279.846,156.220 280.617 C 156.220 281.148,156.393 281.581,156.606 281.581 C 156.826 281.581,156.991 282.739,156.991 284.282 L 156.991 286.982 158.341 286.982 C 159.434 286.982,159.691 287.129,159.691 287.753 C 159.691 288.177,159.865 288.525,160.077 288.525 C 160.289 288.525,160.463 289.392,160.463 290.453 C 160.463 291.763,160.621 292.382,160.956 292.382 C 161.228 292.382,161.700 292.729,162.006 293.153 C 162.312 293.578,162.957 293.925,163.441 293.925 C 163.965 293.925,164.320 294.158,164.320 294.503 C 164.320 294.822,164.494 295.082,164.706 295.082 C 164.918 295.082,165.092 295.429,165.092 295.853 C 165.092 296.278,165.265 296.625,165.477 296.625 C 165.689 296.625,165.863 296.885,165.863 297.203 C 165.863 297.522,166.037 297.782,166.249 297.782 C 166.461 297.782,166.635 298.129,166.635 298.554 C 166.635 298.978,166.820 299.325,167.048 299.325 C 167.582 299.325,168.563 300.306,168.563 300.840 C 168.563 301.068,168.737 301.254,168.949 301.254 C 169.161 301.254,169.335 301.601,169.335 302.025 C 169.335 302.454,169.592 302.797,169.913 302.797 C 170.231 302.797,170.492 303.057,170.492 303.375 C 170.492 303.693,170.665 303.954,170.878 303.954 C 171.090 303.954,171.263 304.301,171.263 304.725 C 171.263 305.149,171.437 305.497,171.649 305.497 C 171.861 305.497,172.035 305.757,172.035 306.075 C 172.035 306.479,172.442 306.654,173.385 306.654 C 174.127 306.654,174.735 306.827,174.735 307.040 C 174.735 307.252,175.094 307.425,175.534 307.425 C 176.557 307.425,177.435 308.303,177.435 309.326 C 177.435 309.982,177.677 310.125,178.785 310.125 C 179.968 310.125,180.135 310.245,180.135 311.090 C 180.135 311.861,180.328 312.054,181.099 312.054 C 181.806 312.054,182.064 312.260,182.064 312.825 C 182.064 313.429,182.321 313.597,183.248 313.597 C 184.621 313.597,185.535 314.357,185.535 315.498 C 185.535 316.093,185.781 316.297,186.500 316.297 C 187.030 316.297,187.464 316.471,187.464 316.683 C 187.464 316.895,188.071 317.068,188.814 317.068 C 189.556 317.068,190.164 317.254,190.164 317.482 C 190.164 318.225,191.245 318.997,192.285 318.997 C 193.221 318.997,194.407 319.752,194.407 320.347 C 194.407 320.748,195.473 321.697,195.922 321.697 C 196.150 321.697,196.336 321.871,196.336 322.083 C 196.336 322.303,197.493 322.469,199.036 322.469 C 201.179 322.469,201.736 322.588,201.736 323.047 C 201.736 323.369,202.079 323.626,202.507 323.626 C 203.107 323.626,203.279 323.883,203.279 324.783 C 203.279 325.419,203.452 325.940,203.664 325.940 C 203.879 325.940,204.050 326.969,204.050 328.255 C 204.050 330.055,204.179 330.569,204.629 330.569 C 205.095 330.569,205.207 331.169,205.207 333.655 C 205.207 335.455,205.368 336.741,205.593 336.741 C 205.826 336.741,205.979 338.348,205.979 340.791 L 205.979 344.841 204.408 344.841 C 202.681 344.841,201.736 345.513,201.736 346.742 C 201.736 347.181,201.550 347.541,201.322 347.541 C 200.788 347.541,199.807 348.522,199.807 349.056 C 199.807 349.284,199.981 349.470,200.193 349.470 C 200.405 349.470,200.579 349.817,200.579 350.241 C 200.579 350.898,200.836 351.013,202.314 351.013 C 203.269 351.013,204.050 350.839,204.050 350.627 C 204.050 350.415,204.236 350.241,204.463 350.241 C 205.144 350.241,205.979 349.194,205.979 348.340 C 205.979 347.901,206.152 347.541,206.365 347.541 C 206.577 347.541,206.750 346.933,206.750 346.191 L 206.750 344.841 210.029 344.841 C 211.958 344.841,213.308 345.000,213.308 345.227 C 213.308 345.439,213.655 345.612,214.079 345.612 C 214.508 345.612,214.851 345.869,214.851 346.191 C 214.851 346.509,215.032 346.770,215.254 346.770 C 215.684 346.770,217.551 348.502,217.551 348.901 C 217.551 349.294,218.622 350.241,219.066 350.241 C 219.293 350.241,219.479 350.068,219.479 349.855 C 219.479 349.643,220.434 349.470,221.601 349.470 C 223.607 349.470,223.722 349.417,223.722 348.505 C 223.722 347.905,223.941 347.541,224.301 347.541 C 224.775 347.541,224.879 346.877,224.879 343.877 C 224.879 340.876,224.775 340.212,224.301 340.212 C 223.915 340.212,223.722 339.826,223.722 339.055 C 223.722 338.419,223.549 337.898,223.337 337.898 C 223.124 337.898,222.951 337.637,222.951 337.319 C 222.951 337.001,222.777 336.741,222.565 336.741 C 222.353 336.741,222.179 336.133,222.179 335.391 C 222.179 334.448,222.005 334.041,221.601 334.041 C 221.279 334.041,221.022 333.698,221.022 333.269 C 221.022 332.845,220.849 332.498,220.636 332.498 C 220.424 332.498,220.251 332.064,220.251 331.533 C 220.251 331.003,220.077 330.569,219.865 330.569 C 219.640 330.569,219.479 329.283,219.479 327.483 L 219.479 324.397 222.480 324.397 C 225.038 324.397,225.563 324.511,226.037 325.169 C 226.342 325.593,226.815 325.940,227.086 325.940 C 227.358 325.940,227.580 326.126,227.580 326.353 C 227.580 327.097,228.660 327.869,229.701 327.869 C 230.923 327.869,231.823 328.675,231.823 329.770 C 231.823 330.209,231.996 330.569,232.208 330.569 C 232.420 330.569,232.594 331.350,232.594 332.305 C 232.594 333.899,232.673 334.041,233.558 334.041 C 234.158 334.041,234.523 334.259,234.523 334.619 C 234.523 334.979,234.887 335.198,235.487 335.198 C 236.194 335.198,236.451 335.403,236.451 335.969 C 236.451 336.393,236.625 336.741,236.837 336.741 C 237.049 336.741,237.223 337.100,237.223 337.540 C 237.223 338.296,238.036 339.441,238.573 339.441 C 238.973 339.441,239.923 340.507,239.923 340.956 C 239.923 341.183,240.096 341.369,240.309 341.369 C 240.521 341.369,240.694 341.716,240.694 342.141 C 240.694 342.569,240.951 342.912,241.273 342.912 C 241.618 342.912,241.851 343.267,241.851 343.791 C 241.851 344.275,242.199 344.921,242.623 345.227 C 243.047 345.532,243.394 346.005,243.394 346.276 C 243.394 346.547,243.568 346.770,243.780 346.770 C 243.992 346.770,244.166 347.117,244.166 347.541 C 244.166 347.970,244.423 348.312,244.744 348.312 C 245.063 348.312,245.323 348.494,245.323 348.716 C 245.323 349.146,247.055 351.013,247.455 351.013 C 248.078 351.013,248.795 352.235,248.795 353.299 C 248.795 353.951,248.968 354.484,249.180 354.484 C 249.392 354.484,249.566 354.744,249.566 355.063 C 249.566 355.381,249.748 355.641,249.969 355.641 C 250.672 355.641,252.266 357.503,252.266 358.324 C 252.266 358.758,252.452 359.113,252.679 359.113 C 253.213 359.113,254.195 360.094,254.195 360.628 C 254.195 360.855,254.368 361.041,254.581 361.041 C 254.793 361.041,254.966 361.389,254.966 361.813 C 254.966 362.237,255.140 362.584,255.352 362.584 C 255.564 362.584,255.738 362.845,255.738 363.163 C 255.738 363.481,255.919 363.742,256.141 363.742 C 257.007 363.742,258.438 365.653,258.438 366.810 C 258.438 367.597,258.629 367.985,259.016 367.985 C 259.335 367.985,259.595 368.158,259.595 368.370 C 259.595 368.615,262.488 368.756,267.502 368.756 C 275.401 368.756,276.089 368.644,274.638 367.599 C 274.214 367.293,273.867 366.821,273.867 366.549 C 273.867 366.278,273.607 366.056,273.288 366.056 C 272.903 366.056,272.710 365.670,272.710 364.899 C 272.710 363.999,272.538 363.742,271.938 363.742 C 271.373 363.742,271.167 363.484,271.167 362.777 C 271.167 362.247,270.981 361.813,270.754 361.813 C 270.073 361.813,269.238 360.766,269.238 359.912 C 269.238 359.370,268.990 359.113,268.467 359.113 C 267.842 359.113,267.695 358.856,267.695 357.763 C 267.695 357.020,267.509 356.413,267.282 356.413 C 266.748 356.413,265.767 355.431,265.767 354.897 C 265.767 354.670,265.593 354.484,265.381 354.484 C 265.163 354.484,264.995 353.391,264.995 351.977 L 264.995 349.470 263.067 349.470 L 261.138 349.470 261.138 347.321 C 261.138 345.004,260.592 344.069,259.237 344.069 C 258.784 344.069,258.438 343.819,258.438 343.491 C 258.438 343.173,258.264 342.912,258.052 342.912 C 257.840 342.912,257.666 342.565,257.666 342.141 C 257.666 341.716,257.493 341.369,257.281 341.369 C 257.068 341.369,256.895 341.109,256.895 340.791 C 256.895 340.431,256.531 340.212,255.931 340.212 C 255.263 340.212,254.966 340.001,254.966 339.526 C 254.966 339.148,254.619 338.589,254.195 338.284 C 253.693 337.922,253.423 337.285,253.423 336.463 C 253.423 335.595,253.241 335.198,252.845 335.198 C 252.485 335.198,252.266 334.833,252.266 334.233 C 252.266 333.526,252.060 333.269,251.495 333.269 C 250.929 333.269,250.723 333.012,250.723 332.305 C 250.723 331.705,250.505 331.340,250.145 331.340 C 249.757 331.340,249.566 330.953,249.566 330.166 C 249.566 329.009,248.135 327.097,247.269 327.097 C 247.047 327.097,246.866 326.837,246.866 326.519 C 246.866 326.201,246.692 325.940,246.480 325.940 C 246.263 325.940,246.095 324.847,246.095 323.433 C 246.095 322.019,245.926 320.926,245.709 320.926 C 245.497 320.926,245.323 320.665,245.323 320.347 C 245.323 320.029,245.063 319.769,244.744 319.769 C 244.264 319.769,244.166 319.019,244.166 315.333 C 244.166 311.647,244.264 310.897,244.744 310.897 C 245.066 310.897,245.323 310.554,245.323 310.125 C 245.323 309.701,245.497 309.354,245.709 309.354 C 245.921 309.354,246.095 308.746,246.095 308.004 C 246.095 307.261,246.268 306.654,246.480 306.654 C 246.692 306.654,246.866 306.220,246.866 305.689 C 246.866 305.089,247.085 304.725,247.445 304.725 C 247.849 304.725,248.023 304.318,248.023 303.375 C 248.023 302.633,248.197 302.025,248.409 302.025 C 248.621 302.025,248.795 301.591,248.795 301.061 C 248.795 300.530,248.968 300.096,249.180 300.096 C 249.392 300.096,249.566 299.576,249.566 298.939 C 249.566 298.168,249.759 297.782,250.145 297.782 C 250.505 297.782,250.723 297.418,250.723 296.818 C 250.723 296.111,250.929 295.853,251.495 295.853 C 252.060 295.853,252.266 295.596,252.266 294.889 C 252.266 294.359,252.452 293.925,252.679 293.925 C 253.966 293.925,254.195 292.852,254.195 286.816 C 254.195 283.069,254.340 280.810,254.581 280.810 C 254.793 280.810,254.966 280.017,254.966 279.047 C 254.966 277.475,255.576 276.181,256.316 276.181 C 256.638 276.181,257.666 275.153,257.666 274.831 C 257.666 274.294,258.811 273.481,259.567 273.481 C 260.257 273.481,260.366 273.244,260.366 271.745 L 260.366 270.010 262.681 270.010 C 263.967 270.010,264.995 270.181,264.995 270.395 C 264.995 270.608,265.342 270.781,265.767 270.781 C 266.191 270.781,266.538 270.608,266.538 270.395 C 266.538 270.183,266.898 270.010,267.337 270.010 C 267.777 270.010,268.384 269.762,268.687 269.459 C 269.312 268.834,269.442 266.538,268.852 266.538 C 268.640 266.538,268.467 266.278,268.467 265.959 C 268.467 265.531,268.017 265.381,266.731 265.381 C 265.445 265.381,264.995 265.531,264.995 265.959 C 264.995 266.410,264.481 266.538,262.681 266.538 L 260.366 266.538 260.366 264.609 C 260.366 263.549,260.193 262.681,259.981 262.681 C 259.756 262.681,259.595 261.395,259.595 259.595 C 259.595 257.795,259.756 256.509,259.981 256.509 C 260.193 256.509,260.366 255.802,260.366 254.939 C 260.366 253.424,259.710 252.266,258.851 252.266 C 258.624 252.266,258.438 252.006,258.438 251.688 C 258.438 251.369,258.264 251.109,258.052 251.109 C 257.840 251.109,257.666 250.762,257.666 250.338 C 257.666 249.913,257.493 249.566,257.281 249.566 C 257.051 249.566,256.895 248.087,256.895 245.902 C 256.895 242.902,256.790 242.237,256.316 242.237 C 255.912 242.237,255.738 241.830,255.738 240.887 C 255.738 240.145,255.564 239.537,255.352 239.537 C 255.140 239.537,254.966 238.930,254.966 238.187 C 254.966 237.445,254.793 236.837,254.581 236.837 C 254.368 236.837,254.195 236.490,254.195 236.066 C 254.195 235.500,253.938 235.294,253.230 235.294 L 252.266 235.294 252.266 228.158 L 252.266 221.022 250.145 221.022 C 248.139 221.022,248.023 220.970,248.023 220.058 C 248.023 219.527,247.837 219.094,247.610 219.094 C 246.929 219.094,246.095 218.046,246.095 217.192 C 246.095 216.753,245.921 216.393,245.709 216.393 C 245.497 216.393,245.323 215.439,245.323 214.272 C 245.323 212.643,245.189 212.150,244.744 212.150 C 244.340 212.150,244.166 211.743,244.166 210.800 C 244.166 210.058,243.992 209.450,243.780 209.450 C 243.568 209.450,243.394 209.016,243.394 208.486 C 243.394 207.956,243.221 207.522,243.009 207.522 C 242.776 207.522,242.623 205.914,242.623 203.472 C 242.623 199.679,242.672 199.421,243.394 199.421 C 243.909 199.421,244.166 199.164,244.166 198.650 C 244.166 198.221,244.423 197.878,244.744 197.878 C 245.149 197.878,245.323 197.471,245.323 196.528 L 245.323 195.178 241.659 195.178 L 237.994 195.178 237.994 193.443 C 237.994 192.488,237.821 191.707,237.608 191.707 C 237.396 191.707,237.223 191.273,237.223 190.743 C 237.223 190.212,237.049 189.778,236.837 189.778 C 236.625 189.778,236.451 188.997,236.451 188.042 C 236.451 186.757,236.301 186.307,235.873 186.307 C 235.554 186.307,235.294 186.046,235.294 185.728 C 235.294 185.410,235.121 185.149,234.908 185.149 C 234.696 185.149,234.523 184.802,234.523 184.378 C 234.523 183.954,234.349 183.607,234.137 183.607 C 233.925 183.607,233.751 183.173,233.751 182.642 C 233.751 182.112,233.565 181.678,233.338 181.678 C 232.657 181.678,231.823 180.631,231.823 179.777 C 231.823 179.337,231.649 178.978,231.437 178.978 C 231.216 178.978,231.051 177.821,231.051 176.278 C 231.051 174.135,230.932 173.578,230.473 173.578 C 230.018 173.578,229.894 173.042,229.894 171.070 C 229.894 168.653,229.929 168.563,230.858 168.563 C 231.389 168.563,231.823 168.377,231.823 168.150 C 231.823 167.469,232.870 166.635,233.724 166.635 C 234.163 166.635,234.523 166.461,234.523 166.249 C 234.523 166.037,234.957 165.863,235.487 165.863 C 236.087 165.863,236.451 165.644,236.451 165.284 C 236.451 164.963,236.794 164.706,237.223 164.706 C 237.647 164.706,237.994 164.532,237.994 164.320 C 237.994 164.108,238.602 163.934,239.344 163.934 C 240.527 163.934,240.694 163.815,240.694 162.970 C 240.694 162.370,240.913 162.006,241.273 162.006 C 241.591 162.006,241.851 161.832,241.851 161.620 C 241.851 161.397,243.082 161.234,244.772 161.234 C 247.482 161.234,248.795 160.794,248.795 159.884 C 248.795 159.347,249.939 158.534,250.696 158.534 C 251.135 158.534,251.495 158.361,251.495 158.149 C 251.495 157.936,252.201 157.763,253.065 157.763 C 254.580 157.763,255.738 157.106,255.738 156.247 C 255.738 156.009,256.552 155.834,257.666 155.834 C 258.727 155.834,259.595 155.661,259.595 155.448 C 259.595 155.223,260.881 155.063,262.681 155.063 C 264.481 155.063,265.767 154.902,265.767 154.677 C 265.767 154.465,266.721 154.291,267.888 154.291 C 269.517 154.291,270.010 154.157,270.010 153.713 C 270.010 153.230,270.781 153.134,274.638 153.134 C 277.467 153.134,279.267 152.984,279.267 152.748 C 279.267 152.523,280.553 152.363,282.353 152.363 C 284.153 152.363,285.439 152.202,285.439 151.977 C 285.439 151.765,286.046 151.591,286.789 151.591 C 287.732 151.591,288.139 151.417,288.139 151.013 C 288.139 150.593,288.571 150.434,289.709 150.434 C 291.437 150.434,292.382 149.762,292.382 148.533 C 292.382 147.877,292.140 147.734,291.032 147.734 C 290.289 147.734,289.682 147.560,289.682 147.348 C 289.682 147.136,289.074 146.962,288.332 146.962 C 287.589 146.962,286.982 146.789,286.982 146.577 C 286.982 146.365,286.027 146.191,284.860 146.191 C 283.232 146.191,282.739 146.057,282.739 145.612 C 282.739 145.153,282.182 145.034,280.039 145.034 C 277.896 145.034,277.338 145.153,277.338 145.612 C 277.338 146.072,276.781 146.191,274.638 146.191 C 273.095 146.191,271.938 146.356,271.938 146.577 C 271.938 146.789,270.984 146.962,269.817 146.962 C 268.650 146.962,267.695 147.136,267.695 147.348 C 267.695 147.560,266.827 147.734,265.767 147.734 C 264.309 147.734,263.838 147.875,263.838 148.312 C 263.838 148.757,263.345 148.891,261.716 148.891 L 259.595 148.891 259.595 146.752 C 259.595 144.633,260.685 142.719,261.892 142.719 C 262.114 142.719,262.295 142.533,262.295 142.306 C 262.295 141.625,263.342 140.791,264.196 140.791 C 264.791 140.791,264.995 140.545,264.995 139.826 C 264.995 139.296,265.169 138.862,265.381 138.862 C 265.593 138.862,265.767 138.329,265.767 137.677 C 265.767 136.496,265.034 135.391,264.251 135.391 C 264.024 135.391,263.838 135.217,263.838 135.005 C 263.838 134.793,263.230 134.619,262.488 134.619 C 261.745 134.619,261.138 134.793,261.138 135.005 C 261.138 135.217,260.791 135.391,260.366 135.391 C 259.942 135.391,259.595 135.564,259.595 135.776 C 259.595 135.988,259.161 136.162,258.631 136.162 C 258.100 136.162,257.666 136.348,257.666 136.575 C 257.666 137.025,256.717 138.091,256.316 138.091 C 255.916 138.091,254.966 139.156,254.966 139.606 C 254.966 139.833,254.793 140.019,254.581 140.019 C 254.368 140.019,254.195 140.366,254.195 140.791 C 254.195 141.356,253.938 141.562,253.230 141.562 C 252.459 141.562,252.266 141.755,252.266 142.527 C 252.266 143.359,252.093 143.491,251.001 143.491 C 250.179 143.491,249.542 143.761,249.180 144.262 C 248.875 144.687,248.229 145.034,247.745 145.034 C 247.221 145.034,246.866 145.267,246.866 145.612 C 246.866 146.067,246.330 146.191,244.359 146.191 C 242.387 146.191,241.851 146.067,241.851 145.612 C 241.851 145.252,241.487 145.034,240.887 145.034 C 240.357 145.034,239.923 144.860,239.923 144.648 C 239.923 144.423,238.637 144.262,236.837 144.262 C 235.037 144.262,233.751 144.423,233.751 144.648 C 233.751 144.860,233.317 145.034,232.787 145.034 C 232.187 145.034,231.823 145.252,231.823 145.612 C 231.823 145.931,231.649 146.191,231.437 146.191 C 231.225 146.191,231.051 146.538,231.051 146.962 C 231.051 147.387,231.225 147.734,231.437 147.734 C 231.649 147.734,231.823 147.920,231.823 148.147 C 231.823 148.828,232.870 149.662,233.724 149.662 C 234.443 149.662,234.523 149.893,234.523 151.977 C 234.523 154.129,234.461 154.291,233.643 154.291 C 233.160 154.291,232.514 154.638,232.208 155.063 C 231.847 155.564,231.210 155.834,230.387 155.834 C 229.520 155.834,229.122 156.016,229.122 156.413 C 229.122 156.841,228.672 156.991,227.387 156.991 C 226.432 156.991,225.651 157.165,225.651 157.377 C 225.651 157.618,223.337 157.763,219.479 157.763 L 213.308 157.763 213.308 156.413 C 213.308 155.127,213.243 155.063,211.958 155.063 C 211.215 155.063,210.608 154.889,210.608 154.677 C 210.608 154.465,210.347 154.291,210.029 154.291 C 209.711 154.291,209.450 154.110,209.450 153.888 C 209.450 153.364,207.677 151.591,207.154 151.591 C 206.932 151.591,206.750 151.410,206.750 151.188 C 206.750 150.485,204.889 148.891,204.068 148.891 C 203.339 148.891,203.279 148.657,203.279 145.805 C 203.279 142.771,203.295 142.719,204.243 142.719 C 204.773 142.719,205.207 142.538,205.207 142.316 C 205.207 141.793,206.981 140.019,207.504 140.019 C 207.726 140.019,207.907 139.838,207.907 139.616 C 207.907 139.092,209.681 137.319,210.204 137.319 C 210.426 137.319,210.608 137.138,210.608 136.916 C 210.608 135.826,212.524 134.619,214.254 134.619 C 215.867 134.619,216.008 134.542,216.008 133.655 C 216.008 132.769,216.149 132.690,217.743 132.690 C 218.698 132.690,219.479 132.517,219.479 132.305 C 219.479 132.093,220.012 131.919,220.664 131.919 C 221.846 131.919,222.951 131.187,222.951 130.404 C 222.951 130.176,223.558 129.990,224.301 129.990 C 225.043 129.990,225.651 129.817,225.651 129.605 C 225.651 129.392,226.085 129.219,226.615 129.219 C 227.146 129.219,227.580 129.045,227.580 128.833 C 227.580 128.621,228.100 128.447,228.737 128.447 C 229.508 128.447,229.894 128.255,229.894 127.869 C 229.894 127.509,230.258 127.290,230.858 127.290 C 231.389 127.290,231.823 127.117,231.823 126.905 C 231.823 126.692,232.257 126.519,232.787 126.519 C 233.505 126.519,233.751 126.315,233.751 125.720 C 233.751 124.761,234.612 123.819,235.487 123.819 C 236.362 123.819,237.223 122.876,237.223 121.918 C 237.223 121.145,237.032 121.119,231.437 121.119 C 227.837 121.119,225.651 121.264,225.651 121.504 C 225.651 121.719,224.622 121.890,223.337 121.890 C 221.948 121.890,221.022 122.055,221.022 122.303 C 221.022 123.047,219.941 123.819,218.901 123.819 C 217.860 123.819,216.779 124.591,216.779 125.334 C 216.779 125.582,215.853 125.747,214.465 125.747 L 212.150 125.747 212.150 123.047 C 212.150 120.904,212.270 120.347,212.729 120.347 C 213.133 120.347,213.308 119.940,213.308 118.997 C 213.308 118.255,213.122 117.647,212.894 117.647 C 212.360 117.647,211.379 116.666,211.379 116.132 C 211.379 115.872,210.230 115.718,208.293 115.718 C 206.493 115.718,205.207 115.558,205.207 115.333 C 205.207 115.121,204.947 114.947,204.629 114.947 C 204.301 114.947,204.050 114.601,204.050 114.148 C 204.050 113.053,203.151 112.247,201.929 112.247 C 200.579 112.247,199.807 111.414,199.807 109.960 C 199.807 109.308,199.634 108.775,199.421 108.775 C 199.209 108.775,199.036 108.515,199.036 108.197 C 199.036 107.878,198.775 107.618,198.457 107.618 C 198.136 107.618,197.878 107.275,197.878 106.847 C 197.878 106.149,197.621 106.075,195.178 106.075 C 193.635 106.075,192.478 106.241,192.478 106.461 " stroke="none" fill="#fcfcfc" fill-rule="evenodd"></path><path id="path1" d="M194.969 2.752 C 184.424 8.796,4.073 112.937,2.218 114.054 L 0.000 115.389 0.000 231.610 C 0.000 324.126,0.098 347.911,0.482 348.217 C 3.749 350.823,198.502 462.488,199.781 462.488 C 201.371 462.488,397.725 349.676,399.325 347.843 C 400.205 346.835,400.396 116.776,399.518 115.613 C 398.412 114.150,201.248 0.771,199.809 0.771 C 198.849 0.771,197.366 1.378,194.969 2.752 M197.878 106.847 C 197.878 107.275,198.136 107.618,198.457 107.618 C 198.775 107.618,199.036 107.878,199.036 108.197 C 199.036 108.515,199.209 108.775,199.421 108.775 C 199.634 108.775,199.807 109.308,199.807 109.960 C 199.807 111.414,200.579 112.247,201.929 112.247 C 203.151 112.247,204.050 113.053,204.050 114.148 C 204.050 114.601,204.301 114.947,204.629 114.947 C 204.947 114.947,205.207 115.121,205.207 115.333 C 205.207 115.558,206.493 115.718,208.293 115.718 C 210.230 115.718,211.379 115.872,211.379 116.132 C 211.379 116.666,212.360 117.647,212.894 117.647 C 213.122 117.647,213.308 118.255,213.308 118.997 C 213.308 119.940,213.133 120.347,212.729 120.347 C 212.270 120.347,212.150 120.904,212.150 123.047 L 212.150 125.747 214.465 125.747 C 215.853 125.747,216.779 125.582,216.779 125.334 C 216.779 124.591,217.860 123.819,218.901 123.819 C 219.941 123.819,221.022 123.047,221.022 122.303 C 221.022 122.055,221.948 121.890,223.337 121.890 C 224.622 121.890,225.651 121.719,225.651 121.504 C 225.651 121.264,227.837 121.119,231.437 121.119 C 237.032 121.119,237.223 121.145,237.223 121.918 C 237.223 122.876,236.362 123.819,235.487 123.819 C 234.612 123.819,233.751 124.761,233.751 125.720 C 233.751 126.315,233.505 126.519,232.787 126.519 C 232.257 126.519,231.823 126.692,231.823 126.905 C 231.823 127.117,231.389 127.290,230.858 127.290 C 230.258 127.290,229.894 127.509,229.894 127.869 C 229.894 128.255,229.508 128.447,228.737 128.447 C 228.100 128.447,227.580 128.621,227.580 128.833 C 227.580 129.045,227.146 129.219,226.615 129.219 C 226.085 129.219,225.651 129.392,225.651 129.605 C 225.651 129.817,225.043 129.990,224.301 129.990 C 223.558 129.990,222.951 130.176,222.951 130.404 C 222.951 131.187,221.846 131.919,220.664 131.919 C 220.012 131.919,219.479 132.093,219.479 132.305 C 219.479 132.517,218.698 132.690,217.743 132.690 C 216.149 132.690,216.008 132.769,216.008 133.655 C 216.008 134.542,215.867 134.619,214.254 134.619 C 212.524 134.619,210.608 135.826,210.608 136.916 C 210.608 137.138,210.426 137.319,210.204 137.319 C 209.681 137.319,207.907 139.092,207.907 139.616 C 207.907 139.838,207.726 140.019,207.504 140.019 C 206.981 140.019,205.207 141.793,205.207 142.316 C 205.207 142.538,204.773 142.719,204.243 142.719 C 203.295 142.719,203.279 142.771,203.279 145.805 C 203.279 148.657,203.339 148.891,204.068 148.891 C 204.889 148.891,206.750 150.485,206.750 151.188 C 206.750 151.410,206.932 151.591,207.154 151.591 C 207.677 151.591,209.450 153.364,209.450 153.888 C 209.450 154.110,209.711 154.291,210.029 154.291 C 210.347 154.291,210.608 154.465,210.608 154.677 C 210.608 154.889,211.215 155.063,211.958 155.063 C 213.243 155.063,213.308 155.127,213.308 156.413 L 213.308 157.763 219.479 157.763 C 223.337 157.763,225.651 157.618,225.651 157.377 C 225.651 157.165,226.432 156.991,227.387 156.991 C 228.672 156.991,229.122 156.841,229.122 156.413 C 229.122 156.016,229.520 155.834,230.387 155.834 C 231.210 155.834,231.847 155.564,232.208 155.063 C 232.514 154.638,233.160 154.291,233.643 154.291 C 234.461 154.291,234.523 154.129,234.523 151.977 C 234.523 149.893,234.443 149.662,233.724 149.662 C 232.870 149.662,231.823 148.828,231.823 148.147 C 231.823 147.920,231.649 147.734,231.437 147.734 C 231.225 147.734,231.051 147.387,231.051 146.962 C 231.051 146.538,231.225 146.191,231.437 146.191 C 231.649 146.191,231.823 145.931,231.823 145.612 C 231.823 145.252,232.187 145.034,232.787 145.034 C 233.317 145.034,233.751 144.860,233.751 144.648 C 233.751 144.423,235.037 144.262,236.837 144.262 C 238.637 144.262,239.923 144.423,239.923 144.648 C 239.923 144.860,240.357 145.034,240.887 145.034 C 241.487 145.034,241.851 145.252,241.851 145.612 C 241.851 146.067,242.387 146.191,244.359 146.191 C 246.330 146.191,246.866 146.067,246.866 145.612 C 246.866 145.267,247.221 145.034,247.745 145.034 C 248.229 145.034,248.875 144.687,249.180 144.262 C 249.542 143.761,250.179 143.491,251.001 143.491 C 252.093 143.491,252.266 143.359,252.266 142.527 C 252.266 141.755,252.459 141.562,253.230 141.562 C 253.938 141.562,254.195 141.356,254.195 140.791 C 254.195 140.366,254.368 140.019,254.581 140.019 C 254.793 140.019,254.966 139.833,254.966 139.606 C 254.966 139.156,255.916 138.091,256.316 138.091 C 256.717 138.091,257.666 137.025,257.666 136.575 C 257.666 136.348,258.100 136.162,258.631 136.162 C 259.161 136.162,259.595 135.988,259.595 135.776 C 259.595 135.564,259.942 135.391,260.366 135.391 C 260.791 135.391,261.138 135.217,261.138 135.005 C 261.138 134.793,261.745 134.619,262.488 134.619 C 263.230 134.619,263.838 134.793,263.838 135.005 C 263.838 135.217,264.024 135.391,264.251 135.391 C 265.034 135.391,265.767 136.496,265.767 137.677 C 265.767 138.329,265.593 138.862,265.381 138.862 C 265.169 138.862,264.995 139.296,264.995 139.826 C 264.995 140.545,264.791 140.791,264.196 140.791 C 263.342 140.791,262.295 141.625,262.295 142.306 C 262.295 142.533,262.114 142.719,261.892 142.719 C 260.685 142.719,259.595 144.633,259.595 146.752 L 259.595 148.891 261.716 148.891 C 263.345 148.891,263.838 148.757,263.838 148.312 C 263.838 147.875,264.309 147.734,265.767 147.734 C 266.827 147.734,267.695 147.560,267.695 147.348 C 267.695 147.136,268.650 146.962,269.817 146.962 C 270.984 146.962,271.938 146.789,271.938 146.577 C 271.938 146.356,273.095 146.191,274.638 146.191 C 276.781 146.191,277.338 146.072,277.338 145.612 C 277.338 145.153,277.896 145.034,280.039 145.034 C 282.182 145.034,282.739 145.153,282.739 145.612 C 282.739 146.057,283.232 146.191,284.860 146.191 C 286.027 146.191,286.982 146.365,286.982 146.577 C 286.982 146.789,287.589 146.962,288.332 146.962 C 289.074 146.962,289.682 147.136,289.682 147.348 C 289.682 147.560,290.289 147.734,291.032 147.734 C 292.140 147.734,292.382 147.877,292.382 148.533 C 292.382 149.762,291.437 150.434,289.709 150.434 C 288.571 150.434,288.139 150.593,288.139 151.013 C 288.139 151.417,287.732 151.591,286.789 151.591 C 286.046 151.591,285.439 151.765,285.439 151.977 C 285.439 152.202,284.153 152.363,282.353 152.363 C 280.553 152.363,279.267 152.523,279.267 152.748 C 279.267 152.984,277.467 153.134,274.638 153.134 C 270.781 153.134,270.010 153.230,270.010 153.713 C 270.010 154.157,269.517 154.291,267.888 154.291 C 266.721 154.291,265.767 154.465,265.767 154.677 C 265.767 154.902,264.481 155.063,262.681 155.063 C 260.881 155.063,259.595 155.223,259.595 155.448 C 259.595 155.661,258.727 155.834,257.666 155.834 C 256.552 155.834,255.738 156.009,255.738 156.247 C 255.738 157.106,254.580 157.763,253.065 157.763 C 252.201 157.763,251.495 157.936,251.495 158.149 C 251.495 158.361,251.135 158.534,250.696 158.534 C 249.939 158.534,248.795 159.347,248.795 159.884 C 248.795 160.794,247.482 161.234,244.772 161.234 C 243.082 161.234,241.851 161.397,241.851 161.620 C 241.851 161.832,241.591 162.006,241.273 162.006 C 240.913 162.006,240.694 162.370,240.694 162.970 C 240.694 163.815,240.527 163.934,239.344 163.934 C 238.602 163.934,237.994 164.108,237.994 164.320 C 237.994 164.532,237.647 164.706,237.223 164.706 C 236.794 164.706,236.451 164.963,236.451 165.284 C 236.451 165.644,236.087 165.863,235.487 165.863 C 234.957 165.863,234.523 166.037,234.523 166.249 C 234.523 166.461,234.163 166.635,233.724 166.635 C 232.870 166.635,231.823 167.469,231.823 168.150 C 231.823 168.377,231.389 168.563,230.858 168.563 C 229.929 168.563,229.894 168.653,229.894 171.070 C 229.894 173.042,230.018 173.578,230.473 173.578 C 230.932 173.578,231.051 174.135,231.051 176.278 C 231.051 177.821,231.216 178.978,231.437 178.978 C 231.649 178.978,231.823 179.337,231.823 179.777 C 231.823 180.631,232.657 181.678,233.338 181.678 C 233.565 181.678,233.751 182.112,233.751 182.642 C 233.751 183.173,233.925 183.607,234.137 183.607 C 234.349 183.607,234.523 183.954,234.523 184.378 C 234.523 184.802,234.696 185.149,234.908 185.149 C 235.121 185.149,235.294 185.410,235.294 185.728 C 235.294 186.046,235.554 186.307,235.873 186.307 C 236.301 186.307,236.451 186.757,236.451 188.042 C 236.451 188.997,236.625 189.778,236.837 189.778 C 237.049 189.778,237.223 190.212,237.223 190.743 C 237.223 191.273,237.396 191.707,237.608 191.707 C 237.821 191.707,237.994 192.488,237.994 193.443 L 237.994 195.178 241.659 195.178 L 245.323 195.178 245.323 196.528 C 245.323 197.471,245.149 197.878,244.744 197.878 C 244.423 197.878,244.166 198.221,244.166 198.650 C 244.166 199.164,243.909 199.421,243.394 199.421 C 242.672 199.421,242.623 199.679,242.623 203.472 C 242.623 205.914,242.776 207.522,243.009 207.522 C 243.221 207.522,243.394 207.956,243.394 208.486 C 243.394 209.016,243.568 209.450,243.780 209.450 C 243.992 209.450,244.166 210.058,244.166 210.800 C 244.166 211.743,244.340 212.150,244.744 212.150 C 245.189 212.150,245.323 212.643,245.323 214.272 C 245.323 215.439,245.497 216.393,245.709 216.393 C 245.921 216.393,246.095 216.753,246.095 217.192 C 246.095 218.046,246.929 219.094,247.610 219.094 C 247.837 219.094,248.023 219.527,248.023 220.058 C 248.023 220.970,248.139 221.022,250.145 221.022 L 252.266 221.022 252.266 228.158 L 252.266 235.294 253.230 235.294 C 253.938 235.294,254.195 235.500,254.195 236.066 C 254.195 236.490,254.368 236.837,254.581 236.837 C 254.793 236.837,254.966 237.445,254.966 238.187 C 254.966 238.930,255.140 239.537,255.352 239.537 C 255.564 239.537,255.738 240.145,255.738 240.887 C 255.738 241.830,255.912 242.237,256.316 242.237 C 256.790 242.237,256.895 242.902,256.895 245.902 C 256.895 248.087,257.051 249.566,257.281 249.566 C 257.493 249.566,257.666 249.913,257.666 250.338 C 257.666 250.762,257.840 251.109,258.052 251.109 C 258.264 251.109,258.438 251.369,258.438 251.688 C 258.438 252.006,258.624 252.266,258.851 252.266 C 259.710 252.266,260.366 253.424,260.366 254.939 C 260.366 255.802,260.193 256.509,259.981 256.509 C 259.756 256.509,259.595 257.795,259.595 259.595 C 259.595 261.395,259.756 262.681,259.981 262.681 C 260.193 262.681,260.366 263.549,260.366 264.609 L 260.366 266.538 262.681 266.538 C 264.481 266.538,264.995 266.410,264.995 265.959 C 264.995 265.531,265.445 265.381,266.731 265.381 C 268.017 265.381,268.467 265.531,268.467 265.959 C 268.467 266.278,268.640 266.538,268.852 266.538 C 269.442 266.538,269.312 268.834,268.687 269.459 C 268.384 269.762,267.777 270.010,267.337 270.010 C 266.898 270.010,266.538 270.183,266.538 270.395 C 266.538 270.608,266.191 270.781,265.767 270.781 C 265.342 270.781,264.995 270.608,264.995 270.395 C 264.995 270.181,263.967 270.010,262.681 270.010 L 260.366 270.010 260.366 271.745 C 260.366 273.244,260.257 273.481,259.567 273.481 C 258.811 273.481,257.666 274.294,257.666 274.831 C 257.666 275.153,256.638 276.181,256.316 276.181 C 255.576 276.181,254.966 277.475,254.966 279.047 C 254.966 280.017,254.793 280.810,254.581 280.810 C 254.340 280.810,254.195 283.069,254.195 286.816 C 254.195 292.852,253.966 293.925,252.679 293.925 C 252.452 293.925,252.266 294.359,252.266 294.889 C 252.266 295.596,252.060 295.853,251.495 295.853 C 250.929 295.853,250.723 296.111,250.723 296.818 C 250.723 297.418,250.505 297.782,250.145 297.782 C 249.759 297.782,249.566 298.168,249.566 298.939 C 249.566 299.576,249.392 300.096,249.180 300.096 C 248.968 300.096,248.795 300.530,248.795 301.061 C 248.795 301.591,248.621 302.025,248.409 302.025 C 248.197 302.025,248.023 302.633,248.023 303.375 C 248.023 304.318,247.849 304.725,247.445 304.725 C 247.085 304.725,246.866 305.089,246.866 305.689 C 246.866 306.220,246.692 306.654,246.480 306.654 C 246.268 306.654,246.095 307.261,246.095 308.004 C 246.095 308.746,245.921 309.354,245.709 309.354 C 245.497 309.354,245.323 309.701,245.323 310.125 C 245.323 310.554,245.066 310.897,244.744 310.897 C 244.264 310.897,244.166 311.647,244.166 315.333 C 244.166 319.019,244.264 319.769,244.744 319.769 C 245.063 319.769,245.323 320.029,245.323 320.347 C 245.323 320.665,245.497 320.926,245.709 320.926 C 245.926 320.926,246.095 322.019,246.095 323.433 C 246.095 324.847,246.263 325.940,246.480 325.940 C 246.692 325.940,246.866 326.201,246.866 326.519 C 246.866 326.837,247.047 327.097,247.269 327.097 C 248.135 327.097,249.566 329.009,249.566 330.166 C 249.566 330.953,249.757 331.340,250.145 331.340 C 250.505 331.340,250.723 331.705,250.723 332.305 C 250.723 333.012,250.929 333.269,251.495 333.269 C 252.060 333.269,252.266 333.526,252.266 334.233 C 252.266 334.833,252.485 335.198,252.845 335.198 C 253.241 335.198,253.423 335.595,253.423 336.463 C 253.423 337.285,253.693 337.922,254.195 338.284 C 254.619 338.589,254.966 339.148,254.966 339.526 C 254.966 340.001,255.263 340.212,255.931 340.212 C 256.531 340.212,256.895 340.431,256.895 340.791 C 256.895 341.109,257.068 341.369,257.281 341.369 C 257.493 341.369,257.666 341.716,257.666 342.141 C 257.666 342.565,257.840 342.912,258.052 342.912 C 258.264 342.912,258.438 343.173,258.438 343.491 C 258.438 343.819,258.784 344.069,259.237 344.069 C 260.592 344.069,261.138 345.004,261.138 347.321 L 261.138 349.470 263.067 349.470 L 264.995 349.470 264.995 351.977 C 264.995 353.391,265.163 354.484,265.381 354.484 C 265.593 354.484,265.767 354.670,265.767 354.897 C 265.767 355.431,266.748 356.413,267.282 356.413 C 267.509 356.413,267.695 357.020,267.695 357.763 C 267.695 358.856,267.842 359.113,268.467 359.113 C 268.990 359.113,269.238 359.370,269.238 359.912 C 269.238 360.766,270.073 361.813,270.754 361.813 C 270.981 361.813,271.167 362.247,271.167 362.777 C 271.167 363.484,271.373 363.742,271.938 363.742 C 272.538 363.742,272.710 363.999,272.710 364.899 C 272.710 365.670,272.903 366.056,273.288 366.056 C 273.607 366.056,273.867 366.278,273.867 366.549 C 273.867 366.821,274.214 367.293,274.638 367.599 C 276.089 368.644,275.401 368.756,267.502 368.756 C 262.488 368.756,259.595 368.615,259.595 368.370 C 259.595 368.158,259.335 367.985,259.016 367.985 C 258.629 367.985,258.438 367.597,258.438 366.810 C 258.438 365.653,257.007 363.742,256.141 363.742 C 255.919 363.742,255.738 363.481,255.738 363.163 C 255.738 362.845,255.564 362.584,255.352 362.584 C 255.140 362.584,254.966 362.237,254.966 361.813 C 254.966 361.389,254.793 361.041,254.581 361.041 C 254.368 361.041,254.195 360.855,254.195 360.628 C 254.195 360.094,253.213 359.113,252.679 359.113 C 252.452 359.113,252.266 358.758,252.266 358.324 C 252.266 357.503,250.672 355.641,249.969 355.641 C 249.748 355.641,249.566 355.381,249.566 355.063 C 249.566 354.744,249.392 354.484,249.180 354.484 C 248.968 354.484,248.795 353.951,248.795 353.299 C 248.795 352.235,248.078 351.013,247.455 351.013 C 247.055 351.013,245.323 349.146,245.323 348.716 C 245.323 348.494,245.063 348.312,244.744 348.312 C 244.423 348.312,244.166 347.970,244.166 347.541 C 244.166 347.117,243.992 346.770,243.780 346.770 C 243.568 346.770,243.394 346.547,243.394 346.276 C 243.394 346.005,243.047 345.532,242.623 345.227 C 242.199 344.921,241.851 344.275,241.851 343.791 C 241.851 343.267,241.618 342.912,241.273 342.912 C 240.951 342.912,240.694 342.569,240.694 342.141 C 240.694 341.716,240.521 341.369,240.309 341.369 C 240.096 341.369,239.923 341.183,239.923 340.956 C 239.923 340.507,238.973 339.441,238.573 339.441 C 238.036 339.441,237.223 338.296,237.223 337.540 C 237.223 337.100,237.049 336.741,236.837 336.741 C 236.625 336.741,236.451 336.393,236.451 335.969 C 236.451 335.403,236.194 335.198,235.487 335.198 C 234.887 335.198,234.523 334.979,234.523 334.619 C 234.523 334.259,234.158 334.041,233.558 334.041 C 232.673 334.041,232.594 333.899,232.594 332.305 C 232.594 331.350,232.420 330.569,232.208 330.569 C 231.996 330.569,231.823 330.209,231.823 329.770 C 231.823 328.675,230.923 327.869,229.701 327.869 C 228.660 327.869,227.580 327.097,227.580 326.353 C 227.580 326.126,227.358 325.940,227.086 325.940 C 226.815 325.940,226.342 325.593,226.037 325.169 C 225.563 324.511,225.038 324.397,222.480 324.397 L 219.479 324.397 219.479 327.483 C 219.479 329.283,219.640 330.569,219.865 330.569 C 220.077 330.569,220.251 331.003,220.251 331.533 C 220.251 332.064,220.424 332.498,220.636 332.498 C 220.849 332.498,221.022 332.845,221.022 333.269 C 221.022 333.698,221.279 334.041,221.601 334.041 C 222.005 334.041,222.179 334.448,222.179 335.391 C 222.179 336.133,222.353 336.741,222.565 336.741 C 222.777 336.741,222.951 337.001,222.951 337.319 C 222.951 337.637,223.124 337.898,223.337 337.898 C 223.549 337.898,223.722 338.419,223.722 339.055 C 223.722 339.826,223.915 340.212,224.301 340.212 C 224.775 340.212,224.879 340.876,224.879 343.877 C 224.879 346.877,224.775 347.541,224.301 347.541 C 223.941 347.541,223.722 347.905,223.722 348.505 C 223.722 349.417,223.607 349.470,221.601 349.470 C 220.434 349.470,219.479 349.643,219.479 349.855 C 219.479 350.068,219.293 350.241,219.066 350.241 C 218.622 350.241,217.551 349.294,217.551 348.901 C 217.551 348.502,215.684 346.770,215.254 346.770 C 215.032 346.770,214.851 346.509,214.851 346.191 C 214.851 345.869,214.508 345.612,214.079 345.612 C 213.655 345.612,213.308 345.439,213.308 345.227 C 213.308 345.000,211.958 344.841,210.029 344.841 L 206.750 344.841 206.750 346.191 C 206.750 346.933,206.577 347.541,206.365 347.541 C 206.152 347.541,205.979 347.901,205.979 348.340 C 205.979 349.194,205.144 350.241,204.463 350.241 C 204.236 350.241,204.050 350.415,204.050 350.627 C 204.050 350.839,203.269 351.013,202.314 351.013 C 200.836 351.013,200.579 350.898,200.579 350.241 C 200.579 349.817,200.405 349.470,200.193 349.470 C 199.981 349.470,199.807 349.284,199.807 349.056 C 199.807 348.522,200.788 347.541,201.322 347.541 C 201.550 347.541,201.736 347.181,201.736 346.742 C 201.736 345.513,202.681 344.841,204.408 344.841 L 205.979 344.841 205.979 340.791 C 205.979 338.348,205.826 336.741,205.593 336.741 C 205.368 336.741,205.207 335.455,205.207 333.655 C 205.207 331.169,205.095 330.569,204.629 330.569 C 204.179 330.569,204.050 330.055,204.050 328.255 C 204.050 326.969,203.879 325.940,203.664 325.940 C 203.452 325.940,203.279 325.419,203.279 324.783 C 203.279 323.883,203.107 323.626,202.507 323.626 C 202.079 323.626,201.736 323.369,201.736 323.047 C 201.736 322.588,201.179 322.469,199.036 322.469 C 197.493 322.469,196.336 322.303,196.336 322.083 C 196.336 321.871,196.150 321.697,195.922 321.697 C 195.473 321.697,194.407 320.748,194.407 320.347 C 194.407 319.752,193.221 318.997,192.285 318.997 C 191.245 318.997,190.164 318.225,190.164 317.482 C 190.164 317.254,189.556 317.068,188.814 317.068 C 188.071 317.068,187.464 316.895,187.464 316.683 C 187.464 316.471,187.030 316.297,186.500 316.297 C 185.781 316.297,185.535 316.093,185.535 315.498 C 185.535 314.357,184.621 313.597,183.248 313.597 C 182.321 313.597,182.064 313.429,182.064 312.825 C 182.064 312.260,181.806 312.054,181.099 312.054 C 180.328 312.054,180.135 311.861,180.135 311.090 C 180.135 310.245,179.968 310.125,178.785 310.125 C 177.677 310.125,177.435 309.982,177.435 309.326 C 177.435 308.303,176.557 307.425,175.534 307.425 C 175.094 307.425,174.735 307.252,174.735 307.040 C 174.735 306.827,174.127 306.654,173.385 306.654 C 172.442 306.654,172.035 306.479,172.035 306.075 C 172.035 305.757,171.861 305.497,171.649 305.497 C 171.437 305.497,171.263 305.149,171.263 304.725 C 171.263 304.301,171.090 303.954,170.878 303.954 C 170.665 303.954,170.492 303.693,170.492 303.375 C 170.492 303.057,170.231 302.797,169.913 302.797 C 169.592 302.797,169.335 302.454,169.335 302.025 C 169.335 301.601,169.161 301.254,168.949 301.254 C 168.737 301.254,168.563 301.068,168.563 300.840 C 168.563 300.306,167.582 299.325,167.048 299.325 C 166.820 299.325,166.635 298.978,166.635 298.554 C 166.635 298.129,166.461 297.782,166.249 297.782 C 166.037 297.782,165.863 297.522,165.863 297.203 C 165.863 296.885,165.689 296.625,165.477 296.625 C 165.265 296.625,165.092 296.278,165.092 295.853 C 165.092 295.429,164.918 295.082,164.706 295.082 C 164.494 295.082,164.320 294.822,164.320 294.503 C 164.320 294.158,163.965 293.925,163.441 293.925 C 162.957 293.925,162.312 293.578,162.006 293.153 C 161.700 292.729,161.228 292.382,160.956 292.382 C 160.621 292.382,160.463 291.763,160.463 290.453 C 160.463 289.392,160.289 288.525,160.077 288.525 C 159.865 288.525,159.691 288.177,159.691 287.753 C 159.691 287.129,159.434 286.982,158.341 286.982 L 156.991 286.982 156.991 284.282 C 156.991 282.739,156.826 281.581,156.606 281.581 C 156.393 281.581,156.220 281.148,156.220 280.617 C 156.220 279.846,156.027 279.653,155.256 279.653 C 154.548 279.653,154.291 279.447,154.291 278.881 C 154.291 278.457,154.118 278.110,153.905 278.110 C 153.655 278.110,153.520 273.224,153.520 264.224 C 153.520 255.223,153.655 250.338,153.905 250.338 C 154.118 250.338,154.291 249.383,154.291 248.216 C 154.291 246.210,154.239 246.095,153.327 246.095 C 152.555 246.095,152.363 245.902,152.363 245.130 C 152.363 244.530,152.581 244.166,152.941 244.166 C 153.413 244.166,153.520 243.521,153.520 240.677 C 153.520 237.162,154.317 235.294,155.817 235.294 C 156.038 235.294,156.220 234.513,156.220 233.558 C 156.220 232.604,156.393 231.823,156.606 231.823 C 156.826 231.823,156.991 230.665,156.991 229.122 C 156.991 227.580,157.157 226.422,157.377 226.422 C 157.614 226.422,157.763 224.494,157.763 221.408 C 157.763 216.651,157.723 216.393,156.991 216.393 C 156.477 216.393,156.220 216.136,156.220 215.622 C 156.220 215.193,155.963 214.851,155.641 214.851 C 155.281 214.851,155.063 214.486,155.063 213.886 C 155.063 213.356,154.889 212.922,154.677 212.922 C 154.465 212.922,154.291 212.314,154.291 211.572 C 154.291 210.829,154.465 210.222,154.677 210.222 C 154.889 210.222,155.063 209.875,155.063 209.450 C 155.063 209.022,155.320 208.679,155.641 208.679 C 156.100 208.679,156.220 208.122,156.220 205.979 C 156.220 203.356,156.192 203.279,155.256 203.279 C 154.368 203.279,154.291 203.139,154.291 201.515 C 154.291 199.816,154.908 198.650,155.807 198.650 C 156.061 198.650,156.220 197.613,156.220 195.950 C 156.220 193.807,156.100 193.250,155.641 193.250 C 155.320 193.250,155.063 192.907,155.063 192.478 C 155.063 192.054,154.889 191.707,154.677 191.707 C 154.465 191.707,154.291 191.273,154.291 190.743 C 154.291 190.212,154.118 189.778,153.905 189.778 C 153.693 189.778,153.520 189.171,153.520 188.428 C 153.520 187.485,153.345 187.078,152.941 187.078 C 152.513 187.078,152.363 186.628,152.363 185.342 C 152.363 184.388,152.189 183.607,151.977 183.607 C 151.765 183.607,151.591 182.999,151.591 182.257 C 151.591 181.514,151.418 180.906,151.205 180.906 C 150.980 180.906,150.820 179.621,150.820 177.821 C 150.820 176.021,150.980 174.735,151.205 174.735 C 151.418 174.735,151.591 174.474,151.591 174.156 C 151.591 173.838,151.765 173.578,151.977 173.578 C 152.189 173.578,152.363 173.230,152.363 172.806 C 152.363 172.378,152.620 172.035,152.941 172.035 C 153.407 172.035,153.520 171.435,153.520 168.949 L 153.520 165.863 151.205 165.863 C 149.148 165.863,148.891 165.949,148.891 166.635 C 148.891 167.259,148.634 167.406,147.541 167.406 C 146.798 167.406,146.191 167.592,146.191 167.819 C 146.191 168.472,145.158 169.335,144.375 169.335 C 143.982 169.335,143.411 169.682,143.105 170.106 C 142.799 170.530,142.153 170.878,141.670 170.878 C 141.186 170.878,140.791 171.064,140.791 171.291 C 140.791 171.905,139.775 172.806,139.083 172.806 C 138.749 172.806,138.476 172.980,138.476 173.192 C 138.476 173.404,138.216 173.578,137.898 173.578 C 137.580 173.578,137.319 173.838,137.319 174.156 C 137.319 174.478,136.976 174.735,136.548 174.735 C 136.123 174.735,135.776 174.908,135.776 175.121 C 135.776 175.333,135.342 175.506,134.812 175.506 C 134.041 175.506,133.848 175.699,133.848 176.471 C 133.848 177.316,133.680 177.435,132.498 177.435 C 131.755 177.435,131.148 177.608,131.148 177.821 C 131.148 178.033,130.714 178.206,130.183 178.206 C 129.338 178.206,129.219 178.374,129.219 179.556 C 129.219 180.806,129.131 180.906,128.034 180.906 C 126.963 180.906,125.747 181.624,125.747 182.257 C 125.747 182.742,124.635 183.607,124.012 183.607 C 122.853 183.607,122.276 184.633,122.276 186.692 C 122.276 187.897,122.059 188.892,121.725 189.227 C 121.100 189.852,118.804 189.982,118.804 189.392 C 118.804 189.180,118.544 189.007,118.226 189.007 C 117.907 189.007,117.647 188.746,117.647 188.428 C 117.647 188.000,117.197 187.850,115.911 187.850 C 114.185 187.850,114.176 187.842,114.176 186.500 C 114.176 185.757,114.349 185.149,114.561 185.149 C 114.773 185.149,114.947 184.802,114.947 184.378 C 114.947 183.949,115.204 183.607,115.526 183.607 C 115.851 183.607,116.104 183.262,116.104 182.818 C 116.104 181.997,117.698 180.135,118.401 180.135 C 118.623 180.135,118.804 179.875,118.804 179.556 C 118.804 179.238,118.978 178.978,119.190 178.978 C 119.402 178.978,119.576 178.631,119.576 178.206 C 119.576 177.782,119.749 177.435,119.961 177.435 C 120.174 177.435,120.347 177.175,120.347 176.856 C 120.347 176.538,120.529 176.278,120.750 176.278 C 120.972 176.278,121.580 175.852,122.100 175.331 C 122.621 174.810,123.047 174.203,123.047 173.981 C 123.047 173.759,123.269 173.578,123.541 173.578 C 123.812 173.578,124.284 173.230,124.590 172.806 C 124.896 172.382,125.455 172.035,125.833 172.035 C 126.210 172.035,126.519 171.774,126.519 171.456 C 126.519 171.138,126.700 170.878,126.922 170.878 C 128.129 170.878,129.219 168.964,129.219 166.845 L 129.219 164.706 127.097 164.706 C 125.846 164.706,124.976 164.875,124.976 165.119 C 124.976 165.902,123.871 166.635,122.689 166.635 C 122.037 166.635,121.504 166.808,121.504 167.020 C 121.504 167.232,121.244 167.406,120.926 167.406 C 120.608 167.406,120.347 167.587,120.347 167.809 C 120.347 168.031,119.921 168.639,119.400 169.159 C 118.880 169.680,118.272 170.106,118.050 170.106 C 117.829 170.106,117.647 170.540,117.647 171.070 C 117.647 171.915,117.480 172.035,116.297 172.035 C 115.050 172.035,114.947 172.124,114.947 173.209 C 114.947 174.366,113.516 176.278,112.650 176.278 C 112.428 176.278,112.247 176.538,112.247 176.856 C 112.247 177.178,111.904 177.435,111.475 177.435 C 111.051 177.435,110.704 177.608,110.704 177.821 C 110.704 178.035,109.675 178.206,108.390 178.206 C 107.104 178.206,106.075 178.378,106.075 178.592 C 106.075 179.181,103.779 179.051,103.155 178.427 C 102.852 178.124,102.604 177.516,102.604 177.077 C 102.604 176.637,102.430 176.278,102.218 176.278 C 102.006 176.278,101.832 175.931,101.832 175.506 C 101.832 175.082,102.006 174.735,102.218 174.735 C 102.430 174.735,102.604 174.549,102.604 174.322 C 102.604 173.788,103.585 172.806,104.119 172.806 C 104.346 172.806,104.532 172.451,104.532 172.017 C 104.532 171.299,106.093 169.335,106.664 169.335 C 107.140 169.335,108.004 168.216,108.004 167.599 C 108.004 166.723,108.946 165.863,109.905 165.863 C 110.344 165.863,110.704 165.677,110.704 165.450 C 110.704 164.825,111.724 163.934,112.440 163.934 C 113.063 163.934,114.176 163.069,114.176 162.584 C 114.176 162.184,115.241 161.234,115.691 161.234 C 115.918 161.234,116.104 160.839,116.104 160.355 C 116.104 159.872,116.451 159.226,116.876 158.920 C 117.300 158.614,117.647 158.055,117.647 157.678 C 117.647 157.203,117.944 156.991,118.611 156.991 C 119.211 156.991,119.576 156.773,119.576 156.413 C 119.576 155.984,120.026 155.834,121.311 155.834 C 122.266 155.834,123.047 155.661,123.047 155.448 C 123.047 155.236,123.308 155.063,123.626 155.063 C 123.944 155.063,124.204 154.889,124.204 154.677 C 124.204 154.465,125.159 154.291,126.326 154.291 C 127.577 154.291,128.447 154.122,128.447 153.878 C 128.447 153.344,129.429 152.363,129.963 152.363 C 130.190 152.363,130.376 152.189,130.376 151.977 C 130.376 151.765,130.723 151.591,131.148 151.591 C 131.576 151.591,131.919 151.334,131.919 151.013 C 131.919 150.684,132.265 150.434,132.718 150.434 C 134.138 150.434,134.619 149.514,134.619 146.797 L 134.619 144.262 132.498 144.262 C 131.331 144.262,130.376 144.436,130.376 144.648 C 130.376 144.860,129.508 145.034,128.447 145.034 C 126.990 145.034,126.519 145.175,126.519 145.612 C 126.519 145.998,126.133 146.191,125.362 146.191 C 124.725 146.191,124.204 146.365,124.204 146.577 C 124.204 146.789,123.597 146.962,122.854 146.962 C 122.112 146.962,121.504 147.136,121.504 147.348 C 121.504 147.560,120.636 147.734,119.576 147.734 C 118.461 147.734,117.647 147.908,117.647 148.147 C 117.647 148.890,116.566 149.662,115.526 149.662 C 114.485 149.662,113.404 150.435,113.404 151.178 C 113.404 151.405,113.008 151.591,112.525 151.591 C 112.041 151.591,111.396 151.938,111.090 152.363 C 110.728 152.864,110.091 153.134,109.269 153.134 C 108.402 153.134,108.004 153.316,108.004 153.713 C 108.004 154.141,107.554 154.291,106.268 154.291 C 105.313 154.291,104.532 154.465,104.532 154.677 C 104.532 154.889,103.925 155.063,103.182 155.063 C 102.440 155.063,101.832 155.236,101.832 155.448 C 101.832 156.037,99.536 155.908,98.912 155.283 C 98.290 154.661,98.152 151.591,98.746 151.591 C 98.959 151.591,99.132 151.331,99.132 151.013 C 99.132 150.694,99.306 150.434,99.518 150.434 C 99.730 150.434,99.904 150.087,99.904 149.662 C 99.904 149.097,100.161 148.891,100.868 148.891 C 101.639 148.891,101.832 148.698,101.832 147.927 C 101.832 147.107,102.010 146.962,103.017 146.962 C 104.199 146.962,105.304 146.230,105.304 145.447 C 105.304 145.220,105.738 145.034,106.268 145.034 C 106.798 145.034,107.232 144.860,107.232 144.648 C 107.232 144.436,107.580 144.262,108.004 144.262 C 108.428 144.262,108.775 144.089,108.775 143.877 C 108.775 143.664,109.036 143.491,109.354 143.491 C 109.672 143.491,109.932 143.317,109.932 143.105 C 109.932 142.893,110.280 142.719,110.704 142.719 C 111.128 142.719,111.475 142.533,111.475 142.306 C 111.475 141.277,112.642 140.791,115.112 140.791 C 116.545 140.791,117.647 140.623,117.647 140.405 C 117.647 140.193,118.081 140.019,118.611 140.019 C 119.211 140.019,119.576 139.801,119.576 139.441 C 119.576 139.081,119.940 138.862,120.540 138.862 C 121.452 138.862,121.504 138.746,121.504 136.741 L 121.504 134.619 112.054 134.619 C 103.911 134.619,102.604 134.539,102.604 134.041 C 102.604 133.715,102.259 133.462,101.815 133.462 C 100.864 133.462,98.732 131.474,99.432 131.240 C 99.692 131.154,99.904 130.664,99.904 130.151 C 99.904 129.303,100.061 129.219,101.639 129.219 C 103.234 129.219,103.375 129.140,103.375 128.255 C 103.375 127.333,103.478 127.290,105.689 127.290 C 106.975 127.290,108.004 127.119,108.004 126.905 C 108.004 126.692,108.611 126.519,109.354 126.519 C 110.096 126.519,110.704 126.345,110.704 126.133 C 110.704 125.900,112.311 125.747,114.754 125.747 C 118.097 125.747,118.804 125.646,118.804 125.169 C 118.804 124.698,119.438 124.590,122.191 124.590 C 125.135 124.590,125.650 124.489,126.133 123.819 C 126.635 123.122,127.132 123.047,131.233 123.047 C 135.014 123.047,135.776 122.950,135.776 122.469 C 135.776 122.003,136.376 121.890,138.862 121.890 C 141.348 121.890,141.948 122.003,141.948 122.469 C 141.948 122.856,142.336 123.047,143.123 123.047 C 144.279 123.047,146.191 124.478,146.191 125.344 C 146.191 125.580,147.152 125.747,148.505 125.747 C 150.305 125.747,150.820 125.619,150.820 125.169 C 150.820 124.765,151.227 124.590,152.170 124.590 C 153.263 124.590,153.520 124.443,153.520 123.819 C 153.520 123.394,153.693 123.047,153.905 123.047 C 154.118 123.047,154.291 122.787,154.291 122.469 C 154.291 122.065,154.698 121.890,155.641 121.890 L 156.991 121.890 156.991 124.590 L 156.991 127.290 161.427 127.290 C 165.113 127.290,165.863 127.388,165.863 127.869 C 165.863 128.297,166.313 128.447,167.599 128.447 C 168.554 128.447,169.335 128.621,169.335 128.833 C 169.335 129.045,169.595 129.219,169.913 129.219 C 170.231 129.219,170.492 129.392,170.492 129.605 C 170.492 129.825,171.649 129.990,173.192 129.990 C 175.335 129.990,175.892 130.110,175.892 130.569 C 175.892 131.035,176.492 131.148,178.978 131.148 L 182.064 131.148 182.064 128.833 C 182.064 126.622,182.021 126.519,181.099 126.519 C 180.569 126.519,180.135 126.345,180.135 126.133 C 180.135 125.921,179.527 125.747,178.785 125.747 C 178.042 125.747,177.435 125.561,177.435 125.334 C 177.435 124.551,176.330 123.819,175.148 123.819 C 174.496 123.819,173.963 123.645,173.963 123.433 C 173.963 123.221,173.529 123.047,172.999 123.047 C 172.399 123.047,172.035 122.829,172.035 122.469 C 172.035 122.150,171.861 121.890,171.649 121.890 C 171.437 121.890,171.263 121.543,171.263 121.119 C 171.263 120.694,171.090 120.347,170.878 120.347 C 170.665 120.347,170.492 120.087,170.492 119.769 C 170.492 119.450,170.231 119.190,169.913 119.190 C 169.592 119.190,169.335 118.847,169.335 118.419 C 169.335 117.904,169.077 117.647,168.563 117.647 C 167.959 117.647,167.792 117.390,167.792 116.462 C 167.792 114.587,168.515 114.176,171.814 114.176 C 174.153 114.176,174.735 114.060,174.735 113.597 C 174.735 113.138,175.292 113.018,177.435 113.018 C 179.578 113.018,180.135 113.138,180.135 113.597 C 180.135 114.026,180.585 114.176,181.871 114.176 C 182.825 114.176,183.607 114.349,183.607 114.561 C 183.607 114.773,184.041 114.947,184.571 114.947 C 185.101 114.947,185.535 115.121,185.535 115.333 C 185.535 115.545,185.969 115.718,186.500 115.718 C 187.030 115.718,187.464 115.904,187.464 116.132 C 187.464 117.069,188.631 117.647,190.522 117.647 L 192.478 117.647 192.478 115.333 C 192.478 114.047,192.307 113.018,192.093 113.018 C 191.880 113.018,191.707 112.671,191.707 112.247 C 191.707 111.823,191.533 111.475,191.321 111.475 C 191.107 111.475,190.935 110.447,190.935 109.161 C 190.935 107.104,191.021 106.847,191.707 106.847 C 192.131 106.847,192.478 106.673,192.478 106.461 C 192.478 106.241,193.635 106.075,195.178 106.075 C 197.621 106.075,197.878 106.149,197.878 106.847 " stroke="none" fill="#040404" fill-rule="evenodd"></path><path id="path2" d="" stroke="none" fill="#c010080" fill-rule="evenodd"></path><path id="path3" d="" stroke="none" fill="#408480" fill-rule="evenodd"></path><path id="path4" d="" stroke="none" fill="#400484" fill-rule="evenodd"></path></g></svg>